<svg width="25" height="25" viewBox="0 0 25 25" fill="none" xmlns="http://www.w3.org/2000/svg">
<path opacity="0.2" d="M4.75895 17.0936C3.64076 15.2086 3.24916 12.9802 3.65768 10.8269C4.06621 8.67362 5.24675 6.74352 6.97764 5.39905C8.70853 4.05458 10.8707 3.38822 13.0581 3.5251C15.2455 3.66199 17.3078 4.59269 18.8575 6.14246C20.4073 7.69223 21.338 9.75444 21.4749 11.9419C21.6118 14.1293 20.9455 16.2915 19.601 18.0223C18.2565 19.7532 16.3264 20.9338 14.1732 21.3423C12.0199 21.7509 9.79149 21.3593 7.90649 20.2411L7.90651 20.241L4.79808 21.1291C4.66947 21.1659 4.53338 21.1676 4.40391 21.134C4.27443 21.1005 4.15628 21.0329 4.0617 20.9383C3.96713 20.8437 3.89956 20.7256 3.86601 20.5961C3.83246 20.4666 3.83415 20.3305 3.87089 20.2019L4.75901 17.0935L4.75895 17.0936Z" fill="#02A689"/>
<path d="M4.75895 17.0936C3.64076 15.2086 3.24916 12.9802 3.65768 10.8269C4.06621 8.67362 5.24675 6.74352 6.97764 5.39905C8.70853 4.05458 10.8707 3.38822 13.0581 3.5251C15.2455 3.66199 17.3078 4.59269 18.8575 6.14246C20.4073 7.69223 21.338 9.75444 21.4749 11.9419C21.6118 14.1293 20.9455 16.2915 19.601 18.0223C18.2565 19.7532 16.3264 20.9338 14.1732 21.3423C12.0199 21.7509 9.79149 21.3593 7.90649 20.2411L7.90651 20.241L4.79808 21.1291C4.66947 21.1659 4.53338 21.1676 4.40391 21.134C4.27443 21.1005 4.15628 21.0329 4.0617 20.9383C3.96713 20.8437 3.89956 20.7256 3.86601 20.5961C3.83246 20.4666 3.83415 20.3305 3.87089 20.2019L4.75901 17.0935L4.75895 17.0936Z" stroke="#02A689" stroke-width="2" stroke-linecap="round" stroke-linejoin="round"/>
<path d="M9.5 11H15.5" stroke="#02A689" stroke-width="2" stroke-linecap="round" stroke-linejoin="round"/>
<path d="M9.5 14H15.5" stroke="#02A689" stroke-width="2" stroke-linecap="round" stroke-linejoin="round"/>
</svg>
