<svg width="25" height="25" viewBox="0 0 25 25" fill="none" xmlns="http://www.w3.org/2000/svg">
<path opacity="0.2" d="M9.16965 12.2014C9.94762 13.7919 11.2369 15.0753 12.8309 15.846C12.9475 15.9013 13.0765 15.9253 13.2052 15.9155C13.3339 15.9058 13.4579 15.8627 13.5648 15.7905L15.9119 14.2254C16.0157 14.1562 16.1352 14.114 16.2594 14.1026C16.3837 14.0911 16.5088 14.1109 16.6235 14.1601L21.0144 16.0419C21.1636 16.1053 21.2881 16.2154 21.3693 16.3557C21.4504 16.496 21.4838 16.6588 21.4643 16.8197C21.3255 17.9057 20.7956 18.9039 19.9739 19.6274C19.1521 20.3508 18.0948 20.7499 17 20.75C13.6185 20.75 10.3755 19.4067 7.98439 17.0156C5.5933 14.6245 4.25 11.3815 4.25 8C4.25006 6.90516 4.64918 5.84789 5.37264 5.02613C6.0961 4.20438 7.09428 3.67451 8.18028 3.53572C8.34117 3.51625 8.50403 3.54959 8.64432 3.63073C8.78461 3.71186 8.89473 3.83639 8.9581 3.98555L10.8416 8.38035C10.8903 8.49403 10.9101 8.61799 10.8994 8.74119C10.8886 8.8644 10.8475 8.98302 10.7798 9.0865L9.22011 11.4696C9.14912 11.5768 9.10716 11.7006 9.09831 11.8289C9.08947 11.9571 9.11405 12.0855 9.16965 12.2014Z" fill="#02A689"/>
<path d="M9.16965 12.2014C9.94762 13.7919 11.2369 15.0753 12.8309 15.846C12.9475 15.9013 13.0765 15.9253 13.2052 15.9155C13.3339 15.9058 13.4579 15.8627 13.5648 15.7905L15.9119 14.2254C16.0157 14.1562 16.1352 14.114 16.2594 14.1026C16.3837 14.0911 16.5088 14.1109 16.6235 14.1601L21.0144 16.0419C21.1636 16.1053 21.2881 16.2154 21.3693 16.3557C21.4504 16.496 21.4838 16.6588 21.4643 16.8197C21.3255 17.9057 20.7956 18.9039 19.9739 19.6274C19.1521 20.3508 18.0948 20.7499 17 20.75C13.6185 20.75 10.3755 19.4067 7.98439 17.0156C5.5933 14.6245 4.25 11.3815 4.25 8C4.25006 6.90516 4.64918 5.84789 5.37264 5.02613C6.0961 4.20438 7.09428 3.67451 8.18028 3.53572C8.34117 3.51625 8.50403 3.54959 8.64432 3.63073C8.78461 3.71186 8.89473 3.83639 8.9581 3.98555L10.8416 8.38035C10.8903 8.49403 10.9101 8.61799 10.8994 8.74119C10.8886 8.8644 10.8475 8.98302 10.7798 9.0865L9.22011 11.4696C9.14912 11.5768 9.10716 11.7006 9.09831 11.8289C9.08947 11.9571 9.11405 12.0855 9.16965 12.2014V12.2014Z" stroke="#02A689" stroke-width="2" stroke-linecap="round" stroke-linejoin="round"/>
<path d="M15.4453 4.25C16.7167 4.59194 17.876 5.26196 18.807 6.19294C19.738 7.12392 20.408 8.28319 20.7499 9.55462" stroke="#02A689" stroke-width="2" stroke-linecap="round" stroke-linejoin="round"/>
<path d="M14.6687 7.14849C15.4316 7.35365 16.1271 7.75567 16.6857 8.31426C17.2443 8.87285 17.6463 9.56841 17.8515 10.3313" stroke="#02A689" stroke-width="2" stroke-linecap="round" stroke-linejoin="round"/>
</svg>
